<?xml version="1.0" encoding="UTF-8"?>
<!DOCTYPE svg PUBLIC "-//W3C//DTD SVG 1.1//EN" "http://www.w3.org/Graphics/SVG/1.1/DTD/svg11.dtd">
<!-- Creator: CorelDRAW -->
<svg xmlns="http://www.w3.org/2000/svg" xml:space="preserve" width="26px" height="26px" version="1.1" style="shape-rendering:geometricPrecision; text-rendering:geometricPrecision; image-rendering:optimizeQuality; fill-rule:evenodd; clip-rule:evenodd"
viewBox="0 0 2.88 2.88"
 xmlns:xlink="http://www.w3.org/1999/xlink"
 xmlns:xodm="http://www.corel.com/coreldraw/odm/2003">
 <defs>
  <style type="text/css">
   <![CDATA[
    .fil0 {fill:none}
    .fil2 {fill:#D900FF}
    .fil1 {fill:fuchsia}
   ]]>
  </style>
    <clipPath id="id0">
     <path d="M1.44 0.01c0.79,0 1.43,0.64 1.43,1.43 0,0.79 -0.64,1.43 -1.43,1.43 -0.79,0 -1.43,-0.64 -1.43,-1.43 0,-0.79 0.64,-1.43 1.43,-1.43z"/>
    </clipPath>
       <mask id="id1">
  <linearGradient id="id2" gradientUnits="userSpaceOnUse" x1="2.97" y1="1.31" x2="1.95" y2="1.81">
   <stop offset="0" style="stop-opacity:1; stop-color:white"/>
   <stop offset="0.490196" style="stop-opacity:0.501961; stop-color:white"/>
   <stop offset="1" style="stop-opacity:0; stop-color:white"/>
  </linearGradient>
        <rect style="fill:url(#id2)" x="2.01" y="0.3" width="0.87" height="2.28"/>
       </mask>
       <mask id="id3">
  <linearGradient id="id4" gradientUnits="userSpaceOnUse" x1="0.78" y1="2.83" x2="0.86" y2="1.7">
   <stop offset="0" style="stop-opacity:1; stop-color:white"/>
   <stop offset="0.490196" style="stop-opacity:0.501961; stop-color:white"/>
   <stop offset="1" style="stop-opacity:0; stop-color:white"/>
  </linearGradient>
        <rect style="fill:url(#id4)" x="0.01" y="1.63" width="1.97" height="1.25"/>
       </mask>
       <mask id="id5">
  <linearGradient id="id6" gradientUnits="userSpaceOnUse" x1="0.56" y1="0.18" x2="1.5" y2="0.81">
   <stop offset="0" style="stop-opacity:1; stop-color:white"/>
   <stop offset="0.490196" style="stop-opacity:0.501961; stop-color:white"/>
   <stop offset="1" style="stop-opacity:0; stop-color:white"/>
  </linearGradient>
        <rect style="fill:url(#id6)" x="0.01" width="1.97" height="1.25"/>
       </mask>
    <clipPath id="id7">
     <path d="M2 1.11c-0.18,-0.31 -0.58,-0.41 -0.89,-0.23 -0.31,0.18 -0.41,0.57 -0.23,0.88 0.18,0.31 0.57,0.42 0.88,0.24 0.31,-0.18 0.42,-0.58 0.24,-0.89z"/>
    </clipPath>
       <mask id="id8">
  <linearGradient id="id9" gradientUnits="userSpaceOnUse" x1="1.14" y1="0.81" x2="1.18" y2="1.32">
   <stop offset="0" style="stop-opacity:1; stop-color:white"/>
   <stop offset="0.490196" style="stop-opacity:0.501961; stop-color:white"/>
   <stop offset="1" style="stop-opacity:0; stop-color:white"/>
  </linearGradient>
        <rect style="fill:url(#id9)" x="0.79" y="0.78" width="0.9" height="0.58"/>
       </mask>
       <mask id="id10">
  <linearGradient id="id11" gradientUnits="userSpaceOnUse" x1="1.04" y1="2.01" x2="1.47" y2="1.72">
   <stop offset="0" style="stop-opacity:1; stop-color:white"/>
   <stop offset="0.490196" style="stop-opacity:0.501961; stop-color:white"/>
   <stop offset="1" style="stop-opacity:0; stop-color:white"/>
  </linearGradient>
        <rect style="fill:url(#id11)" x="0.79" y="1.52" width="0.9" height="0.58"/>
       </mask>
       <mask id="id12">
  <linearGradient id="id13" gradientUnits="userSpaceOnUse" x1="2.13" y1="1.5" x2="1.67" y2="1.27">
   <stop offset="0" style="stop-opacity:1; stop-color:white"/>
   <stop offset="0.490196" style="stop-opacity:0.501961; stop-color:white"/>
   <stop offset="1" style="stop-opacity:0; stop-color:white"/>
  </linearGradient>
        <rect style="fill:url(#id13)" x="1.69" y="0.92" width="0.41" height="1.04"/>
       </mask>
 </defs>
 <g id="圖層_x0020_1">
  <metadata id="CorelCorpID_0Corel-Layer"/>
  <g id="_3225425918816">
   <rect class="fil0" width="2.88" height="2.88" rx="0.42" ry="0.42"/>
   <g>
   </g>
   <g style="clip-path:url(#id0)">
    <g>
     <g>
      <path class="fil1" style="mask:url(#id1)" d="M2.68 2.15c-0.1,0.17 -0.22,0.31 -0.36,0.42l-0.3 -0.52c0.06,-0.05 0.11,-0.12 0.15,-0.19 0.2,-0.34 0.13,-0.77 -0.15,-1.03l0.3 -0.52c0.56,0.43 0.72,1.22 0.36,1.84z"/>
      <path class="fil1" style="mask:url(#id3)" d="M0.2 2.15c-0.1,-0.16 -0.16,-0.33 -0.18,-0.51l0.6 0c0.02,0.07 0.04,0.15 0.09,0.22 0.2,0.35 0.6,0.5 0.97,0.39l0.29 0.52c-0.65,0.26 -1.41,0.01 -1.77,-0.62z"/>
      <path class="fil1" style="mask:url(#id5)" d="M1.44 0.01c0.19,0 0.37,0.03 0.53,0.1l-0.29 0.52c-0.08,-0.03 -0.16,-0.04 -0.24,-0.04 -0.4,0 -0.73,0.28 -0.82,0.65l-0.6 0c0.1,-0.7 0.69,-1.23 1.42,-1.23z"/>
     </g>
    </g>
   </g>
   <path class="fil0" d="M1.44 0.01c0.79,0 1.43,0.64 1.43,1.43 0,0.79 -0.64,1.43 -1.43,1.43 -0.79,0 -1.43,-0.64 -1.43,-1.43 0,-0.79 0.64,-1.43 1.43,-1.43z"/>
   <g>
   </g>
   <g style="clip-path:url(#id7)">
    <g>
     <g>
      <path class="fil2" style="mask:url(#id8)" d="M0.88 1.11c-0.05,0.08 -0.07,0.16 -0.08,0.24l0.27 0c0.01,-0.04 0.02,-0.07 0.04,-0.1 0.09,-0.16 0.27,-0.23 0.44,-0.18l0.13 -0.23c-0.29,-0.12 -0.64,-0.01 -0.8,0.27z"/>
      <path class="fil2" style="mask:url(#id10)" d="M1.44 2.09c0.08,0 0.17,-0.02 0.24,-0.05l-0.13 -0.23c-0.04,0.01 -0.07,0.01 -0.11,0.01 -0.18,0 -0.33,-0.12 -0.37,-0.29l-0.27 0c0.04,0.31 0.31,0.56 0.64,0.56z"/>
      <path class="fil2" style="mask:url(#id12)" d="M2 1.11c-0.04,-0.07 -0.1,-0.13 -0.16,-0.18l-0.14 0.23c0.03,0.03 0.05,0.06 0.07,0.09 0.09,0.15 0.06,0.35 -0.07,0.47l0.14 0.23c0.25,-0.2 0.32,-0.55 0.16,-0.84z"/>
     </g>
    </g>
   </g>
   <path class="fil0" d="M2 1.11c-0.18,-0.31 -0.58,-0.41 -0.89,-0.23 -0.31,0.18 -0.41,0.57 -0.23,0.88 0.18,0.31 0.57,0.42 0.88,0.24 0.31,-0.18 0.42,-0.58 0.24,-0.89z"/>
  </g>
 </g>
</svg>
