<?xml version="1.0" encoding="UTF-8"?>
<!DOCTYPE svg PUBLIC "-//W3C//DTD SVG 1.1//EN" "http://www.w3.org/Graphics/SVG/1.1/DTD/svg11.dtd">
<!-- Creator: CorelDRAW -->
<svg xmlns="http://www.w3.org/2000/svg" xml:space="preserve" width="600px" height="600px" version="1.1" style="shape-rendering:geometricPrecision; text-rendering:geometricPrecision; image-rendering:optimizeQuality; fill-rule:evenodd; clip-rule:evenodd"
viewBox="0 0 280.07 280.07"
 xmlns:xlink="http://www.w3.org/1999/xlink"
 xmlns:xodm="http://www.corel.com/coreldraw/odm/2003">
 <defs>
  <style type="text/css">
   <![CDATA[
    .fil0 {fill:none}
    .fil6 {fill:#D225F0}
    .fil2 {fill:#D900FF}
    .fil5 {fill:#F044F0}
    .fil1 {fill:fuchsia}
    .fil3 {fill:#332C2B;fill-rule:nonzero}
    .fil7 {fill:url(#id70)}
    .fil4 {fill:url(#id71)}
   ]]>
  </style>
     <clipPath id="id0">
      <path d="M14.62 2.51c3.33,0 6.02,2.7 6.02,6.02 0,3.33 -2.69,6.02 -6.02,6.02 -3.32,0 -6.02,-2.69 -6.02,-6.02 0,-3.32 2.7,-6.02 6.02,-6.02z"/>
     </clipPath>
        <mask id="id1">
  <linearGradient id="id2" gradientUnits="userSpaceOnUse" x1="21.06" y1="7.99" x2="16.78" y2="10.08">
   <stop offset="0" style="stop-opacity:1; stop-color:white"/>
   <stop offset="0.490196" style="stop-opacity:0.501961; stop-color:white"/>
   <stop offset="1" style="stop-opacity:0; stop-color:white"/>
  </linearGradient>
         <rect style="fill:url(#id2)" x="16.93" y="3.65" width="3.85" height="9.77"/>
        </mask>
        <mask id="id3">
  <linearGradient id="id4" gradientUnits="userSpaceOnUse" x1="11.87" y1="14.38" x2="12.2" y2="9.63">
   <stop offset="0" style="stop-opacity:1; stop-color:white"/>
   <stop offset="0.490196" style="stop-opacity:0.501961; stop-color:white"/>
   <stop offset="1" style="stop-opacity:0; stop-color:white"/>
  </linearGradient>
         <rect style="fill:url(#id4)" x="8.52" y="9.23" width="8.5" height="5.46"/>
        </mask>
        <mask id="id5">
  <linearGradient id="id6" gradientUnits="userSpaceOnUse" x1="10.93" y1="3.23" x2="14.88" y2="5.88">
   <stop offset="0" style="stop-opacity:1; stop-color:white"/>
   <stop offset="0.490196" style="stop-opacity:0.501961; stop-color:white"/>
   <stop offset="1" style="stop-opacity:0; stop-color:white"/>
  </linearGradient>
         <rect style="fill:url(#id6)" x="8.52" y="2.37" width="8.5" height="5.46"/>
        </mask>
     <clipPath id="id7">
      <path d="M16.98 7.17c-0.75,-1.3 -2.42,-1.75 -3.72,-1 -1.3,0.75 -1.75,2.42 -1,3.72 0.76,1.31 2.42,1.75 3.72,1 1.31,-0.75 1.75,-2.42 1,-3.72z"/>
     </clipPath>
        <mask id="id8">
  <linearGradient id="id9" gradientUnits="userSpaceOnUse" x1="13.38" y1="5.89" x2="13.53" y2="8.03">
   <stop offset="0" style="stop-opacity:1; stop-color:white"/>
   <stop offset="0.490196" style="stop-opacity:0.501961; stop-color:white"/>
   <stop offset="1" style="stop-opacity:0; stop-color:white"/>
  </linearGradient>
         <rect style="fill:url(#id9)" x="11.78" y="5.67" width="4" height="2.62"/>
        </mask>
        <mask id="id10">
  <linearGradient id="id11" gradientUnits="userSpaceOnUse" x1="12.95" y1="10.93" x2="14.74" y2="9.73">
   <stop offset="0" style="stop-opacity:1; stop-color:white"/>
   <stop offset="0.490196" style="stop-opacity:0.501961; stop-color:white"/>
   <stop offset="1" style="stop-opacity:0; stop-color:white"/>
  </linearGradient>
         <rect style="fill:url(#id11)" x="11.78" y="8.77" width="4" height="2.62"/>
        </mask>
        <mask id="id12">
  <linearGradient id="id13" gradientUnits="userSpaceOnUse" x1="17.53" y1="8.78" x2="15.6" y2="7.83">
   <stop offset="0" style="stop-opacity:1; stop-color:white"/>
   <stop offset="0.490196" style="stop-opacity:0.501961; stop-color:white"/>
   <stop offset="1" style="stop-opacity:0; stop-color:white"/>
  </linearGradient>
         <rect style="fill:url(#id13)" x="15.59" y="6.25" width="1.9" height="4.57"/>
        </mask>
     <clipPath id="id14">
      <path d="M17.37 40.55c3.33,0 6.02,2.69 6.02,6.02 0,3.32 -2.69,6.02 -6.02,6.02 -3.32,0 -6.02,-2.7 -6.02,-6.02 0,-3.33 2.7,-6.02 6.02,-6.02z"/>
     </clipPath>
        <mask id="id15">
  <linearGradient id="id16" gradientUnits="userSpaceOnUse" x1="23.81" y1="46.03" x2="19.53" y2="48.12">
   <stop offset="0" style="stop-opacity:1; stop-color:white"/>
   <stop offset="0.490196" style="stop-opacity:0.501961; stop-color:white"/>
   <stop offset="1" style="stop-opacity:0; stop-color:white"/>
  </linearGradient>
         <rect style="fill:url(#id16)" x="19.68" y="41.68" width="3.85" height="9.77"/>
        </mask>
        <mask id="id17">
  <linearGradient id="id18" gradientUnits="userSpaceOnUse" x1="14.62" y1="52.42" x2="14.95" y2="47.67">
   <stop offset="0" style="stop-opacity:1; stop-color:white"/>
   <stop offset="0.490196" style="stop-opacity:0.501961; stop-color:white"/>
   <stop offset="1" style="stop-opacity:0; stop-color:white"/>
  </linearGradient>
         <rect style="fill:url(#id18)" x="11.27" y="47.27" width="8.49" height="5.46"/>
        </mask>
        <mask id="id19">
  <linearGradient id="id20" gradientUnits="userSpaceOnUse" x1="13.68" y1="41.26" x2="17.63" y2="43.92">
   <stop offset="0" style="stop-opacity:1; stop-color:white"/>
   <stop offset="0.490196" style="stop-opacity:0.501961; stop-color:white"/>
   <stop offset="1" style="stop-opacity:0; stop-color:white"/>
  </linearGradient>
         <rect style="fill:url(#id20)" x="11.27" y="40.41" width="8.5" height="5.46"/>
        </mask>
     <clipPath id="id21">
      <path d="M19.73 45.21c-0.75,-1.31 -2.42,-1.75 -3.72,-1 -1.3,0.75 -1.75,2.42 -1,3.72 0.75,1.3 2.42,1.75 3.72,1 1.31,-0.75 1.75,-2.42 1,-3.72z"/>
     </clipPath>
        <mask id="id22">
  <linearGradient id="id23" gradientUnits="userSpaceOnUse" x1="16.13" y1="43.92" x2="16.28" y2="46.07">
   <stop offset="0" style="stop-opacity:1; stop-color:white"/>
   <stop offset="0.490196" style="stop-opacity:0.501961; stop-color:white"/>
   <stop offset="1" style="stop-opacity:0; stop-color:white"/>
  </linearGradient>
         <rect style="fill:url(#id23)" x="14.53" y="43.71" width="4" height="2.62"/>
        </mask>
        <mask id="id24">
  <linearGradient id="id25" gradientUnits="userSpaceOnUse" x1="15.7" y1="48.97" x2="17.49" y2="47.77">
   <stop offset="0" style="stop-opacity:1; stop-color:white"/>
   <stop offset="0.490196" style="stop-opacity:0.501961; stop-color:white"/>
   <stop offset="1" style="stop-opacity:0; stop-color:white"/>
  </linearGradient>
         <rect style="fill:url(#id25)" x="14.53" y="46.81" width="4" height="2.62"/>
        </mask>
        <mask id="id26">
  <linearGradient id="id27" gradientUnits="userSpaceOnUse" x1="20.28" y1="46.81" x2="18.35" y2="45.87">
   <stop offset="0" style="stop-opacity:1; stop-color:white"/>
   <stop offset="0.490196" style="stop-opacity:0.501961; stop-color:white"/>
   <stop offset="1" style="stop-opacity:0; stop-color:white"/>
  </linearGradient>
         <rect style="fill:url(#id27)" x="18.34" y="44.28" width="1.89" height="4.57"/>
        </mask>
     <clipPath id="id28">
      <path d="M17.37 58.95c3.33,0 6.02,2.69 6.02,6.02 0,3.32 -2.69,6.02 -6.02,6.02 -3.32,0 -6.02,-2.7 -6.02,-6.02 0,-3.33 2.7,-6.02 6.02,-6.02z"/>
     </clipPath>
        <mask id="id29">
  <linearGradient id="id30" gradientUnits="userSpaceOnUse" x1="23.81" y1="64.42" x2="19.53" y2="66.52">
   <stop offset="0" style="stop-opacity:1; stop-color:white"/>
   <stop offset="0.490196" style="stop-opacity:0.501961; stop-color:white"/>
   <stop offset="1" style="stop-opacity:0; stop-color:white"/>
  </linearGradient>
         <rect style="fill:url(#id30)" x="19.68" y="60.08" width="3.85" height="9.77"/>
        </mask>
        <mask id="id31">
  <linearGradient id="id32" gradientUnits="userSpaceOnUse" x1="14.62" y1="70.82" x2="14.95" y2="66.07">
   <stop offset="0" style="stop-opacity:1; stop-color:white"/>
   <stop offset="0.490196" style="stop-opacity:0.501961; stop-color:white"/>
   <stop offset="1" style="stop-opacity:0; stop-color:white"/>
  </linearGradient>
         <rect style="fill:url(#id32)" x="11.27" y="65.67" width="8.49" height="5.46"/>
        </mask>
        <mask id="id33">
  <linearGradient id="id34" gradientUnits="userSpaceOnUse" x1="13.68" y1="59.66" x2="17.63" y2="62.32">
   <stop offset="0" style="stop-opacity:1; stop-color:white"/>
   <stop offset="0.490196" style="stop-opacity:0.501961; stop-color:white"/>
   <stop offset="1" style="stop-opacity:0; stop-color:white"/>
  </linearGradient>
         <rect style="fill:url(#id34)" x="11.27" y="58.81" width="8.5" height="5.46"/>
        </mask>
     <clipPath id="id35">
      <path d="M19.73 63.61c-0.75,-1.31 -2.42,-1.75 -3.72,-1 -1.3,0.75 -1.75,2.42 -1,3.72 0.75,1.3 2.42,1.75 3.72,1 1.31,-0.76 1.75,-2.42 1,-3.72z"/>
     </clipPath>
        <mask id="id36">
  <linearGradient id="id37" gradientUnits="userSpaceOnUse" x1="16.13" y1="62.32" x2="16.28" y2="64.47">
   <stop offset="0" style="stop-opacity:1; stop-color:white"/>
   <stop offset="0.490196" style="stop-opacity:0.501961; stop-color:white"/>
   <stop offset="1" style="stop-opacity:0; stop-color:white"/>
  </linearGradient>
         <rect style="fill:url(#id37)" x="14.53" y="62.1" width="4" height="2.63"/>
        </mask>
        <mask id="id38">
  <linearGradient id="id39" gradientUnits="userSpaceOnUse" x1="15.7" y1="67.37" x2="17.49" y2="66.17">
   <stop offset="0" style="stop-opacity:1; stop-color:white"/>
   <stop offset="0.490196" style="stop-opacity:0.501961; stop-color:white"/>
   <stop offset="1" style="stop-opacity:0; stop-color:white"/>
  </linearGradient>
         <rect style="fill:url(#id39)" x="14.53" y="65.21" width="4" height="2.62"/>
        </mask>
        <mask id="id40">
  <linearGradient id="id41" gradientUnits="userSpaceOnUse" x1="20.28" y1="65.21" x2="18.35" y2="64.27">
   <stop offset="0" style="stop-opacity:1; stop-color:white"/>
   <stop offset="0.490196" style="stop-opacity:0.501961; stop-color:white"/>
   <stop offset="1" style="stop-opacity:0; stop-color:white"/>
  </linearGradient>
         <rect style="fill:url(#id41)" x="18.34" y="62.68" width="1.89" height="4.57"/>
        </mask>
      <clipPath id="id42">
       <path d="M17 23.13c2.94,0 5.33,2.38 5.33,5.33 0,2.95 -2.39,5.33 -5.33,5.33 -2.95,0 -5.34,-2.38 -5.34,-5.33 0,-2.95 2.39,-5.33 5.34,-5.33z"/>
      </clipPath>
         <mask id="id43">
  <linearGradient id="id44" gradientUnits="userSpaceOnUse" x1="22.7" y1="27.98" x2="18.91" y2="29.83">
   <stop offset="0" style="stop-opacity:1; stop-color:white"/>
   <stop offset="0.490196" style="stop-opacity:0.501961; stop-color:white"/>
   <stop offset="1" style="stop-opacity:0; stop-color:white"/>
  </linearGradient>
          <rect style="fill:url(#id44)" x="19.03" y="24.12" width="3.44" height="8.68"/>
         </mask>
         <mask id="id45">
  <linearGradient id="id46" gradientUnits="userSpaceOnUse" x1="14.56" y1="33.64" x2="14.85" y2="29.43">
   <stop offset="0" style="stop-opacity:1; stop-color:white"/>
   <stop offset="0.490196" style="stop-opacity:0.501961; stop-color:white"/>
   <stop offset="1" style="stop-opacity:0; stop-color:white"/>
  </linearGradient>
          <rect style="fill:url(#id46)" x="11.57" y="29.06" width="7.56" height="4.87"/>
         </mask>
         <mask id="id47">
  <linearGradient id="id48" gradientUnits="userSpaceOnUse" x1="13.73" y1="23.76" x2="17.23" y2="26.11">
   <stop offset="0" style="stop-opacity:1; stop-color:white"/>
   <stop offset="0.490196" style="stop-opacity:0.501961; stop-color:white"/>
   <stop offset="1" style="stop-opacity:0; stop-color:white"/>
  </linearGradient>
          <rect style="fill:url(#id48)" x="11.57" y="22.99" width="7.56" height="4.87"/>
         </mask>
      <clipPath id="id49">
       <path d="M19.09 27.25c-0.67,-1.15 -2.15,-1.55 -3.3,-0.88 -1.15,0.67 -1.55,2.14 -0.88,3.3 0.66,1.15 2.14,1.55 3.29,0.88 1.16,-0.67 1.55,-2.14 0.89,-3.3z"/>
      </clipPath>
         <mask id="id50">
  <linearGradient id="id51" gradientUnits="userSpaceOnUse" x1="15.9" y1="26.12" x2="16.03" y2="28.02">
   <stop offset="0" style="stop-opacity:1; stop-color:white"/>
   <stop offset="0.490196" style="stop-opacity:0.501961; stop-color:white"/>
   <stop offset="1" style="stop-opacity:0; stop-color:white"/>
  </linearGradient>
          <rect style="fill:url(#id51)" x="14.47" y="25.91" width="3.57" height="2.35"/>
         </mask>
         <mask id="id52">
  <linearGradient id="id53" gradientUnits="userSpaceOnUse" x1="15.52" y1="30.59" x2="17.1" y2="29.52">
   <stop offset="0" style="stop-opacity:1; stop-color:white"/>
   <stop offset="0.490196" style="stop-opacity:0.501961; stop-color:white"/>
   <stop offset="1" style="stop-opacity:0; stop-color:white"/>
  </linearGradient>
          <rect style="fill:url(#id53)" x="14.47" y="28.66" width="3.57" height="2.35"/>
         </mask>
         <mask id="id54">
  <linearGradient id="id55" gradientUnits="userSpaceOnUse" x1="19.58" y1="28.68" x2="17.86" y2="27.84">
   <stop offset="0" style="stop-opacity:1; stop-color:white"/>
   <stop offset="0.490196" style="stop-opacity:0.501961; stop-color:white"/>
   <stop offset="1" style="stop-opacity:0; stop-color:white"/>
  </linearGradient>
          <rect style="fill:url(#id55)" x="17.84" y="26.42" width="1.71" height="4.08"/>
         </mask>
      <clipPath id="id56">
       <path d="M61.29 24.12c2.95,0 5.34,2.39 5.34,5.33 0,2.95 -2.39,5.34 -5.34,5.34 -2.94,0 -5.33,-2.39 -5.33,-5.34 0,-2.94 2.39,-5.33 5.33,-5.33z"/>
      </clipPath>
         <mask id="id57">
  <linearGradient id="id58" gradientUnits="userSpaceOnUse" x1="67" y1="28.97" x2="63.21" y2="30.82">
   <stop offset="0" style="stop-opacity:1; stop-color:white"/>
   <stop offset="0.490196" style="stop-opacity:0.501961; stop-color:white"/>
   <stop offset="1" style="stop-opacity:0; stop-color:white"/>
  </linearGradient>
          <rect style="fill:url(#id58)" x="63.33" y="25.11" width="3.44" height="8.69"/>
         </mask>
         <mask id="id59">
  <linearGradient id="id60" gradientUnits="userSpaceOnUse" x1="58.86" y1="34.63" x2="59.15" y2="30.43">
   <stop offset="0" style="stop-opacity:1; stop-color:white"/>
   <stop offset="0.490196" style="stop-opacity:0.501961; stop-color:white"/>
   <stop offset="1" style="stop-opacity:0; stop-color:white"/>
  </linearGradient>
          <rect style="fill:url(#id60)" x="55.87" y="30.06" width="7.56" height="4.87"/>
         </mask>
         <mask id="id61">
  <linearGradient id="id62" gradientUnits="userSpaceOnUse" x1="58.02" y1="24.75" x2="61.52" y2="27.11">
   <stop offset="0" style="stop-opacity:1; stop-color:white"/>
   <stop offset="0.490196" style="stop-opacity:0.501961; stop-color:white"/>
   <stop offset="1" style="stop-opacity:0; stop-color:white"/>
  </linearGradient>
          <rect style="fill:url(#id62)" x="55.87" y="23.98" width="7.56" height="4.87"/>
         </mask>
      <clipPath id="id63">
       <path d="M63.38 28.25c-0.66,-1.16 -2.14,-1.55 -3.29,-0.89 -1.16,0.67 -1.55,2.15 -0.89,3.3 0.67,1.15 2.14,1.55 3.3,0.88 1.15,-0.66 1.55,-2.14 0.88,-3.29z"/>
      </clipPath>
         <mask id="id64">
  <linearGradient id="id65" gradientUnits="userSpaceOnUse" x1="60.19" y1="27.11" x2="60.32" y2="29.01">
   <stop offset="0" style="stop-opacity:1; stop-color:white"/>
   <stop offset="0.490196" style="stop-opacity:0.501961; stop-color:white"/>
   <stop offset="1" style="stop-opacity:0; stop-color:white"/>
  </linearGradient>
          <rect style="fill:url(#id65)" x="58.76" y="26.9" width="3.58" height="2.36"/>
         </mask>
         <mask id="id66">
  <linearGradient id="id67" gradientUnits="userSpaceOnUse" x1="59.81" y1="31.58" x2="61.4" y2="30.51">
   <stop offset="0" style="stop-opacity:1; stop-color:white"/>
   <stop offset="0.490196" style="stop-opacity:0.501961; stop-color:white"/>
   <stop offset="1" style="stop-opacity:0; stop-color:white"/>
  </linearGradient>
          <rect style="fill:url(#id67)" x="58.76" y="29.65" width="3.58" height="2.36"/>
         </mask>
         <mask id="id68">
  <linearGradient id="id69" gradientUnits="userSpaceOnUse" x1="63.87" y1="29.67" x2="62.16" y2="28.83">
   <stop offset="0" style="stop-opacity:1; stop-color:white"/>
   <stop offset="0.490196" style="stop-opacity:0.501961; stop-color:white"/>
   <stop offset="1" style="stop-opacity:0; stop-color:white"/>
  </linearGradient>
          <rect style="fill:url(#id69)" x="62.14" y="27.41" width="1.71" height="4.08"/>
         </mask>
  <linearGradient id="id70" gradientUnits="userSpaceOnUse" x1="55.85" y1="34.9" x2="66.74" y2="24.01">
   <stop offset="0" style="stop-opacity:1; stop-color:#2200B7"/>
   <stop offset="1" style="stop-opacity:1; stop-color:#A100E4"/>
  </linearGradient>
  <linearGradient id="id71" gradientUnits="userSpaceOnUse" xlink:href="#id70" x1="11.55" y1="33.91" x2="22.44" y2="23.01">
  </linearGradient>
 </defs>
 <g id="圖層_x0020_1">
  <metadata id="CorelCorpID_0Corel-Layer"/>
  <g id="_3225283704416">
   <rect class="fil0" width="280.07" height="280.07"/>
   <g>
    <g>
    </g>
    <g style="clip-path:url(#id0)">
     <g>
      <g>
       <path class="fil1" style="mask:url(#id1)" d="M19.84 11.54c-0.4,0.69 -0.92,1.27 -1.51,1.74l-1.26 -2.18c0.24,-0.23 0.45,-0.49 0.63,-0.79 0.83,-1.45 0.53,-3.24 -0.63,-4.35l1.26 -2.17c2.33,1.81 3.03,5.12 1.51,7.75z"/>
       <path class="fil1" style="mask:url(#id3)" d="M9.41 11.54c-0.4,-0.69 -0.65,-1.43 -0.75,-2.17l2.51 0c0.08,0.32 0.2,0.64 0.37,0.94 0.84,1.45 2.54,2.08 4.08,1.63l1.26 2.17c-2.74,1.12 -5.95,0.07 -7.47,-2.57z"/>
       <path class="fil1" style="mask:url(#id5)" d="M14.62 2.51c0.8,0 1.56,0.16 2.26,0.44l-1.26 2.17c-0.32,-0.09 -0.65,-0.14 -1,-0.14 -1.67,0 -3.08,1.15 -3.45,2.71l-2.51 0c0.41,-2.93 2.92,-5.18 5.96,-5.18z"/>
      </g>
     </g>
    </g>
    <path class="fil0" d="M14.62 2.51c3.33,0 6.02,2.7 6.02,6.02 0,3.33 -2.69,6.02 -6.02,6.02 -3.32,0 -6.02,-2.69 -6.02,-6.02 0,-3.32 2.7,-6.02 6.02,-6.02z"/>
    <g>
    </g>
    <g style="clip-path:url(#id7)">
     <g>
      <g>
       <path class="fil2" style="mask:url(#id8)" d="M12.26 7.17c-0.18,0.31 -0.29,0.65 -0.34,0.98l1.14 0c0.03,-0.14 0.09,-0.29 0.17,-0.42 0.38,-0.66 1.15,-0.95 1.84,-0.74l0.57 -0.98c-1.24,-0.51 -2.69,-0.03 -3.38,1.16z"/>
       <path class="fil2" style="mask:url(#id10)" d="M14.62 11.25c0.36,0 0.71,-0.07 1.02,-0.19l-0.57 -0.99c-0.14,0.05 -0.29,0.07 -0.45,0.07 -0.76,0 -1.39,-0.52 -1.56,-1.23l-1.14 0c0.19,1.33 1.33,2.34 2.7,2.34z"/>
       <path class="fil2" style="mask:url(#id12)" d="M16.98 7.17c-0.18,-0.31 -0.41,-0.58 -0.68,-0.78l-0.57 0.98c0.11,0.1 0.2,0.22 0.28,0.36 0.38,0.65 0.25,1.46 -0.28,1.96l0.57 0.99c1.05,-0.82 1.37,-2.32 0.68,-3.51z"/>
      </g>
     </g>
    </g>
    <path class="fil0" d="M16.98 7.17c-0.75,-1.3 -2.42,-1.75 -3.72,-1 -1.3,0.75 -1.75,2.42 -1,3.72 0.76,1.31 2.42,1.75 3.72,1 1.31,-0.75 1.75,-2.42 1,-3.72z"/>
   </g>
   <path class="fil3" d="M30.21 5.09l-2.58 0 0 6.57 -1.64 0 0 -6.57 -2.59 0 0 -1.33 6.81 0 0 1.33zm0.56 6.54l0 -5.66 1.58 0 0 5.66 -1.58 0zm0 -6.56l0 -1.43 1.58 0 0 1.43 -1.58 0zm8.35 6.56l-1.51 0c-0.16,-0.27 -0.26,-0.58 -0.28,-0.93 -0.48,0.69 -1.29,1.05 -2.42,1.07 -0.53,0 -0.96,-0.16 -1.3,-0.46 -0.34,-0.31 -0.51,-0.7 -0.51,-1.18 0,-0.51 0.16,-0.91 0.49,-1.2 0.34,-0.31 0.87,-0.52 1.59,-0.63 1.07,-0.19 1.77,-0.38 2.09,-0.56 0,-0.28 -0.08,-0.49 -0.22,-0.6 -0.18,-0.13 -0.49,-0.2 -0.96,-0.2 -0.7,0 -1.14,0.26 -1.32,0.78l-1.5 -0.22c0.17,-0.56 0.47,-0.97 0.91,-1.24 0.47,-0.29 1.1,-0.43 1.9,-0.43 1.01,0 1.72,0.19 2.15,0.57 0.4,0.37 0.6,0.97 0.6,1.81l0 2.19c0,0.53 0.1,0.94 0.29,1.23zm-1.75 -2.57l0 -0.4c-0.36,0.22 -0.86,0.39 -1.51,0.51 -0.82,0.15 -1.22,0.44 -1.22,0.87 0,0.2 0.07,0.35 0.22,0.45 0.15,0.1 0.39,0.14 0.73,0.14 0.52,0 0.95,-0.16 1.29,-0.48 0.33,-0.3 0.49,-0.67 0.49,-1.09zm7.84 2.58l-1.58 0 0 -3.26c0,-0.44 -0.08,-0.76 -0.25,-0.97 -0.18,-0.23 -0.46,-0.34 -0.85,-0.34 -0.35,0 -0.64,0.13 -0.87,0.4 -0.22,0.25 -0.33,0.58 -0.34,0.98l0 3.19 -1.59 0 0 -5.67 1.59 0 0 0.89c0.17,-0.29 0.44,-0.53 0.78,-0.72 0.35,-0.2 0.71,-0.3 1.07,-0.3 0.74,0 1.27,0.2 1.6,0.61 0.3,0.36 0.44,0.93 0.44,1.69l0 3.5zm8.16 0.01l-2.08 0 -2.06 -3.15 -1.2 0 0 3.16 -1.64 0 0 -7.9 3.62 0c0.94,0 1.67,0.22 2.2,0.66 0.49,0.42 0.74,0.97 0.74,1.65 0,0.65 -0.15,1.16 -0.45,1.54 -0.33,0.4 -0.84,0.67 -1.54,0.8l2.41 3.24zm-5.34 -6.62l0 2.23 1.68 0c0.53,0 0.91,-0.09 1.16,-0.27 0.23,-0.18 0.35,-0.46 0.35,-0.84 0,-0.38 -0.11,-0.66 -0.34,-0.83 -0.23,-0.2 -0.62,-0.29 -1.17,-0.29l-1.68 0zm9.77 4.82l1.68 0.2c-0.22,0.58 -0.57,1.01 -1.05,1.29 -0.48,0.29 -1.12,0.43 -1.91,0.43 -0.98,0 -1.74,-0.27 -2.3,-0.79 -0.55,-0.52 -0.82,-1.22 -0.82,-2.09 0,-0.94 0.26,-1.68 0.78,-2.22 0.53,-0.56 1.26,-0.84 2.18,-0.84 1.07,0 1.85,0.29 2.37,0.87 0.45,0.51 0.68,1.24 0.68,2.18l0 0.38 -4.39 0c0,0.41 0.14,0.74 0.43,1 0.28,0.24 0.63,0.36 1.06,0.36 0.68,0 1.11,-0.26 1.29,-0.77zm-2.83 -1.59l2.88 0c0,-0.38 -0.13,-0.7 -0.4,-0.96 -0.26,-0.25 -0.6,-0.37 -1.01,-0.37 -0.44,0 -0.8,0.13 -1.07,0.39 -0.27,0.25 -0.4,0.57 -0.4,0.94zm10.69 3.38l-1.59 0 0 -3.26c0,-0.44 -0.08,-0.76 -0.25,-0.97 -0.18,-0.23 -0.46,-0.34 -0.84,-0.34 -0.36,0 -0.65,0.13 -0.88,0.4 -0.21,0.25 -0.33,0.58 -0.34,0.98l0 3.19 -1.59 0 0 -5.67 1.59 0 0 0.89c0.18,-0.29 0.44,-0.53 0.78,-0.72 0.36,-0.2 0.71,-0.3 1.07,-0.3 0.74,0 1.28,0.2 1.6,0.61 0.3,0.36 0.45,0.93 0.45,1.69l0 3.5z"/>
   <g>
    <g>
    </g>
    <g style="clip-path:url(#id14)">
     <g>
      <g>
       <path class="fil1" style="mask:url(#id15)" d="M22.58 49.58c-0.39,0.69 -0.91,1.27 -1.5,1.73l-1.26 -2.17c0.24,-0.23 0.45,-0.49 0.63,-0.79 0.83,-1.45 0.53,-3.25 -0.63,-4.35l1.26 -2.18c2.33,1.82 3.03,5.13 1.5,7.76z"/>
       <path class="fil1" style="mask:url(#id17)" d="M12.16 49.58c-0.4,-0.69 -0.65,-1.43 -0.75,-2.17l2.51 0c0.07,0.32 0.2,0.63 0.37,0.94 0.84,1.44 2.54,2.08 4.08,1.63l1.25 2.17c-2.74,1.11 -5.94,0.06 -7.46,-2.57z"/>
       <path class="fil1" style="mask:url(#id19)" d="M17.37 40.55c0.8,0 1.56,0.15 2.26,0.43l-1.26 2.18c-0.32,-0.09 -0.65,-0.14 -1,-0.14 -1.67,0 -3.08,1.15 -3.45,2.71l-2.51 0c0.41,-2.93 2.92,-5.18 5.96,-5.18z"/>
      </g>
     </g>
    </g>
    <path class="fil0" d="M17.37 40.55c3.33,0 6.02,2.69 6.02,6.02 0,3.32 -2.69,6.02 -6.02,6.02 -3.32,0 -6.02,-2.7 -6.02,-6.02 0,-3.33 2.7,-6.02 6.02,-6.02z"/>
    <g>
    </g>
    <g style="clip-path:url(#id21)">
     <g>
      <g>
       <path class="fil2" style="mask:url(#id22)" d="M15.01 45.21c-0.18,0.31 -0.29,0.64 -0.34,0.98l1.14 0c0.03,-0.15 0.09,-0.29 0.17,-0.42 0.38,-0.66 1.15,-0.95 1.84,-0.74l0.57 -0.99c-1.24,-0.5 -2.69,-0.02 -3.38,1.17z"/>
       <path class="fil2" style="mask:url(#id24)" d="M17.37 49.29c0.36,0 0.71,-0.07 1.02,-0.2l-0.57 -0.98c-0.14,0.04 -0.29,0.07 -0.45,0.07 -0.76,0 -1.39,-0.53 -1.56,-1.23l-1.14 0c0.19,1.32 1.33,2.34 2.7,2.34z"/>
       <path class="fil2" style="mask:url(#id26)" d="M19.73 45.21c-0.18,-0.32 -0.41,-0.58 -0.68,-0.79l-0.57 0.99c0.11,0.1 0.2,0.22 0.28,0.36 0.38,0.65 0.25,1.46 -0.28,1.96l0.57 0.98c1.05,-0.82 1.37,-2.31 0.68,-3.5z"/>
      </g>
     </g>
    </g>
    <path class="fil0" d="M19.73 45.21c-0.75,-1.31 -2.42,-1.75 -3.72,-1 -1.3,0.75 -1.75,2.42 -1,3.72 0.75,1.3 2.42,1.75 3.72,1 1.31,-0.75 1.75,-2.42 1,-3.72z"/>
   </g>
   <g>
    <g>
    </g>
    <g style="clip-path:url(#id28)">
     <g>
      <g>
       <path class="fil1" style="mask:url(#id29)" d="M22.58 67.98c-0.39,0.69 -0.91,1.27 -1.5,1.73l-1.26 -2.17c0.24,-0.23 0.45,-0.49 0.63,-0.8 0.83,-1.45 0.53,-3.24 -0.63,-4.34l1.26 -2.18c2.33,1.82 3.03,5.12 1.5,7.76z"/>
       <path class="fil1" style="mask:url(#id31)" d="M12.16 67.98c-0.4,-0.69 -0.65,-1.43 -0.75,-2.17l2.51 0c0.07,0.32 0.2,0.63 0.37,0.93 0.84,1.45 2.54,2.09 4.08,1.64l1.25 2.17c-2.74,1.11 -5.94,0.06 -7.46,-2.57z"/>
       <path class="fil1" style="mask:url(#id33)" d="M17.37 58.95c0.8,0 1.56,0.15 2.26,0.43l-1.26 2.18c-0.32,-0.1 -0.65,-0.15 -1,-0.15 -1.67,0 -3.08,1.16 -3.45,2.72l-2.51 0c0.41,-2.93 2.92,-5.18 5.96,-5.18z"/>
      </g>
     </g>
    </g>
    <path class="fil0" d="M17.37 58.95c3.33,0 6.02,2.69 6.02,6.02 0,3.32 -2.69,6.02 -6.02,6.02 -3.32,0 -6.02,-2.7 -6.02,-6.02 0,-3.33 2.7,-6.02 6.02,-6.02z"/>
    <g>
    </g>
    <g style="clip-path:url(#id35)">
     <g>
      <g>
       <path class="fil2" style="mask:url(#id36)" d="M15.01 63.61c-0.18,0.31 -0.29,0.64 -0.34,0.98l1.14 0c0.03,-0.15 0.09,-0.29 0.17,-0.43 0.38,-0.65 1.15,-0.94 1.84,-0.73l0.57 -0.99c-1.24,-0.5 -2.69,-0.03 -3.38,1.17z"/>
       <path class="fil2" style="mask:url(#id38)" d="M17.37 67.69c0.36,0 0.71,-0.07 1.02,-0.2l-0.57 -0.98c-0.14,0.04 -0.29,0.06 -0.45,0.06 -0.76,0 -1.39,-0.52 -1.56,-1.22l-1.14 0c0.19,1.32 1.33,2.34 2.7,2.34z"/>
       <path class="fil2" style="mask:url(#id40)" d="M19.73 63.61c-0.18,-0.32 -0.41,-0.58 -0.68,-0.79l-0.57 0.98c0.11,0.11 0.2,0.23 0.28,0.36 0.38,0.66 0.25,1.47 -0.28,1.97l0.57 0.98c1.05,-0.82 1.37,-2.31 0.68,-3.5z"/>
      </g>
     </g>
    </g>
    <path class="fil0" d="M19.73 63.61c-0.75,-1.31 -2.42,-1.75 -3.72,-1 -1.3,0.75 -1.75,2.42 -1,3.72 0.75,1.3 2.42,1.75 3.72,1 1.31,-0.76 1.75,-2.42 1,-3.72z"/>
   </g>
   <g>
    <rect class="fil4" x="9.29" y="20.76" width="15.4" height="15.4" rx="2.26" ry="2.26"/>
    <g>
     <g>
     </g>
     <g style="clip-path:url(#id42)">
      <g>
       <g>
        <path class="fil5" style="mask:url(#id43)" d="M21.61 31.13c-0.35,0.61 -0.81,1.12 -1.33,1.53l-1.11 -1.92c0.21,-0.2 0.4,-0.44 0.55,-0.71 0.74,-1.28 0.48,-2.87 -0.55,-3.85l1.11 -1.92c2.07,1.61 2.68,4.53 1.33,6.87z"/>
        <path class="fil5" style="mask:url(#id45)" d="M12.38 31.13c-0.36,-0.61 -0.57,-1.27 -0.67,-1.93l2.23 0c0.07,0.29 0.18,0.57 0.33,0.83 0.74,1.29 2.25,1.85 3.61,1.45l1.11 1.93c-2.42,0.98 -5.27,0.05 -6.61,-2.28z"/>
        <path class="fil5" style="mask:url(#id47)" d="M17 23.13c0.7,0 1.38,0.13 1.99,0.38l-1.11 1.93c-0.28,-0.08 -0.58,-0.13 -0.88,-0.13 -1.49,0 -2.73,1.03 -3.06,2.41l-2.23 0c0.37,-2.6 2.59,-4.59 5.29,-4.59z"/>
       </g>
      </g>
     </g>
     <path class="fil0" d="M17 23.13c2.94,0 5.33,2.38 5.33,5.33 0,2.95 -2.39,5.33 -5.33,5.33 -2.95,0 -5.34,-2.38 -5.34,-5.33 0,-2.95 2.39,-5.33 5.34,-5.33z"/>
     <g>
     </g>
     <g style="clip-path:url(#id49)">
      <g>
       <g>
        <path class="fil6" style="mask:url(#id50)" d="M14.91 27.25c-0.16,0.28 -0.26,0.58 -0.3,0.87l1 0c0.03,-0.12 0.08,-0.25 0.15,-0.37 0.34,-0.58 1.02,-0.84 1.64,-0.66l0.5 -0.87c-1.1,-0.44 -2.38,-0.02 -2.99,1.03z"/>
        <path class="fil6" style="mask:url(#id52)" d="M17 30.87c0.32,0 0.62,-0.06 0.9,-0.17l-0.5 -0.87c-0.13,0.03 -0.26,0.05 -0.4,0.05 -0.67,0 -1.24,-0.46 -1.39,-1.08l-1 0c0.16,1.17 1.17,2.07 2.39,2.07z"/>
        <path class="fil6" style="mask:url(#id54)" d="M19.09 27.25c-0.16,-0.27 -0.37,-0.51 -0.61,-0.69l-0.5 0.87c0.1,0.09 0.18,0.2 0.25,0.32 0.33,0.58 0.21,1.3 -0.25,1.74l0.5 0.87c0.94,-0.73 1.21,-2.05 0.61,-3.11z"/>
       </g>
      </g>
     </g>
     <path class="fil0" d="M19.09 27.25c-0.67,-1.15 -2.15,-1.55 -3.3,-0.88 -1.15,0.67 -1.55,2.14 -0.88,3.3 0.66,1.15 2.14,1.55 3.29,0.88 1.16,-0.67 1.55,-2.14 0.89,-3.3z"/>
    </g>
   </g>
   <g>
    <rect class="fil7" x="53.59" y="21.75" width="15.4" height="15.4" rx="2.26" ry="2.26"/>
    <g>
     <g>
     </g>
     <g style="clip-path:url(#id56)">
      <g>
       <g>
        <path class="fil5" style="mask:url(#id57)" d="M65.91 32.12c-0.35,0.61 -0.81,1.13 -1.33,1.54l-1.11 -1.93c0.21,-0.2 0.39,-0.44 0.55,-0.7 0.74,-1.29 0.47,-2.88 -0.55,-3.85l1.11 -1.93c2.06,1.61 2.68,4.54 1.33,6.87z"/>
        <path class="fil5" style="mask:url(#id59)" d="M56.67 32.12c-0.35,-0.61 -0.57,-1.26 -0.66,-1.92l2.22 0c0.07,0.28 0.18,0.56 0.34,0.83 0.74,1.28 2.25,1.84 3.61,1.44l1.11 1.93c-2.43,0.98 -5.27,0.05 -6.62,-2.28z"/>
        <path class="fil5" style="mask:url(#id61)" d="M61.29 24.12c0.71,0 1.38,0.14 2,0.39l-1.11 1.92c-0.28,-0.08 -0.58,-0.12 -0.89,-0.12 -1.48,0 -2.72,1.02 -3.06,2.4l-2.22 0c0.36,-2.59 2.59,-4.59 5.28,-4.59z"/>
       </g>
      </g>
     </g>
     <path class="fil0" d="M61.29 24.12c2.95,0 5.34,2.39 5.34,5.33 0,2.95 -2.39,5.34 -5.34,5.34 -2.94,0 -5.33,-2.39 -5.33,-5.34 0,-2.94 2.39,-5.33 5.33,-5.33z"/>
     <g>
     </g>
     <g style="clip-path:url(#id63)">
      <g>
       <g>
        <path class="fil6" style="mask:url(#id64)" d="M59.2 28.25c-0.16,0.27 -0.25,0.57 -0.3,0.87l1.01 0c0.03,-0.13 0.08,-0.26 0.15,-0.38 0.34,-0.58 1.02,-0.83 1.63,-0.65l0.51 -0.87c-1.1,-0.45 -2.39,-0.03 -3,1.03z"/>
        <path class="fil6" style="mask:url(#id66)" d="M61.29 31.87c0.32,0 0.63,-0.07 0.91,-0.18l-0.51 -0.87c-0.12,0.04 -0.26,0.06 -0.4,0.06 -0.67,0 -1.23,-0.47 -1.38,-1.09l-1.01 0c0.17,1.17 1.17,2.08 2.39,2.08z"/>
        <path class="fil6" style="mask:url(#id68)" d="M63.38 28.25c-0.16,-0.28 -0.36,-0.51 -0.6,-0.7l-0.5 0.87c0.09,0.09 0.18,0.2 0.25,0.32 0.33,0.58 0.21,1.3 -0.25,1.74l0.5 0.87c0.93,-0.72 1.21,-2.05 0.6,-3.1z"/>
       </g>
      </g>
     </g>
     <path class="fil0" d="M63.38 28.25c-0.66,-1.16 -2.14,-1.55 -3.29,-0.89 -1.16,0.67 -1.55,2.15 -0.89,3.3 0.67,1.15 2.14,1.55 3.3,0.88 1.15,-0.66 1.55,-2.14 0.88,-3.29z"/>
    </g>
   </g>
  </g>
 </g>
</svg>
