<?xml version="1.0" encoding="UTF-8"?>
<!DOCTYPE svg PUBLIC "-//W3C//DTD SVG 1.1//EN" "http://www.w3.org/Graphics/SVG/1.1/DTD/svg11.dtd">
<!-- Creator: CorelDRAW -->
<svg xmlns="http://www.w3.org/2000/svg" xml:space="preserve" width="1000px" height="287px" version="1.1" style="shape-rendering:geometricPrecision; text-rendering:geometricPrecision; image-rendering:optimizeQuality; fill-rule:evenodd; clip-rule:evenodd"
viewBox="0 0 481.1 138.08"
 xmlns:xlink="http://www.w3.org/1999/xlink"
 xmlns:xodm="http://www.corel.com/coreldraw/odm/2003">
 <defs>
  <style type="text/css">
   <![CDATA[
    .fil1 {fill:none}
    .fil3 {fill:#D900FF}
    .fil0 {fill:#E5E5E5}
    .fil2 {fill:fuchsia}
    .fil4 {fill:#332C2B;fill-rule:nonzero}
   ]]>
  </style>
     <clipPath id="id0">
      <path d="M240.55 25.15c12.44,0 22.52,10.08 22.52,22.52 0,12.43 -10.08,22.51 -22.52,22.51 -12.44,0 -22.52,-10.08 -22.52,-22.51 0,-12.44 10.08,-22.52 22.52,-22.52z"/>
     </clipPath>
        <mask id="id1">
  <linearGradient id="id2" gradientUnits="userSpaceOnUse" x1="264.63" y1="45.63" x2="248.64" y2="53.46">
   <stop offset="0" style="stop-opacity:1; stop-color:white"/>
   <stop offset="0.490196" style="stop-opacity:0.501961; stop-color:white"/>
   <stop offset="1" style="stop-opacity:0; stop-color:white"/>
  </linearGradient>
         <rect style="fill:url(#id2)" x="249.48" y="29.68" width="13.83" height="35.97"/>
        </mask>
        <mask id="id3">
  <linearGradient id="id4" gradientUnits="userSpaceOnUse" x1="230.26" y1="69.54" x2="231.48" y2="51.78">
   <stop offset="0" style="stop-opacity:1; stop-color:white"/>
   <stop offset="0.490196" style="stop-opacity:0.501961; stop-color:white"/>
   <stop offset="1" style="stop-opacity:0; stop-color:white"/>
  </linearGradient>
         <rect style="fill:url(#id4)" x="218" y="50.56" width="31.22" height="19.87"/>
        </mask>
        <mask id="id5">
  <linearGradient id="id6" gradientUnits="userSpaceOnUse" x1="226.74" y1="27.82" x2="241.52" y2="37.76">
   <stop offset="0" style="stop-opacity:1; stop-color:white"/>
   <stop offset="0.490196" style="stop-opacity:0.501961; stop-color:white"/>
   <stop offset="1" style="stop-opacity:0; stop-color:white"/>
  </linearGradient>
         <rect style="fill:url(#id6)" x="218.01" y="24.91" width="31.21" height="19.86"/>
        </mask>
     <clipPath id="id7">
      <path d="M249.37 42.57c-2.81,-4.87 -9.04,-6.54 -13.91,-3.72 -4.87,2.81 -6.54,9.04 -3.73,13.91 2.81,4.87 9.04,6.54 13.91,3.73 4.87,-2.82 6.54,-9.05 3.73,-13.92z"/>
     </clipPath>
        <mask id="id8">
  <linearGradient id="id9" gradientUnits="userSpaceOnUse" x1="235.9" y1="37.77" x2="236.45" y2="45.81">
   <stop offset="0" style="stop-opacity:1; stop-color:white"/>
   <stop offset="0.490196" style="stop-opacity:0.501961; stop-color:white"/>
   <stop offset="1" style="stop-opacity:0; stop-color:white"/>
  </linearGradient>
         <rect style="fill:url(#id9)" x="230.22" y="37.24" width="14.38" height="9.25"/>
        </mask>
        <mask id="id10">
  <linearGradient id="id11" gradientUnits="userSpaceOnUse" x1="234.31" y1="56.64" x2="240.99" y2="52.15">
   <stop offset="0" style="stop-opacity:1; stop-color:white"/>
   <stop offset="0.490196" style="stop-opacity:0.501961; stop-color:white"/>
   <stop offset="1" style="stop-opacity:0; stop-color:white"/>
  </linearGradient>
         <rect style="fill:url(#id11)" x="230.22" y="48.85" width="14.39" height="9.24"/>
        </mask>
        <mask id="id12">
  <linearGradient id="id13" gradientUnits="userSpaceOnUse" x1="251.44" y1="48.59" x2="244.21" y2="45.05">
   <stop offset="0" style="stop-opacity:1; stop-color:white"/>
   <stop offset="0.490196" style="stop-opacity:0.501961; stop-color:white"/>
   <stop offset="1" style="stop-opacity:0; stop-color:white"/>
  </linearGradient>
         <rect style="fill:url(#id13)" x="244.46" y="39.4" width="6.52" height="16.53"/>
        </mask>
 </defs>
 <g id="圖層_x0020_1">
  <metadata id="CorelCorpID_0Corel-Layer"/>
  <g id="_3225018131552">
   <rect class="fil0" width="481.1" height="138.08"/>
   <g>
    <rect class="fil1" x="217.94" y="25.05" width="45.22" height="45.22" rx="6.63" ry="6.63"/>
    <g>
    </g>
    <g style="clip-path:url(#id0)">
     <g>
      <g>
       <path class="fil2" style="mask:url(#id1)" d="M260.05 58.93c-1.49,2.58 -3.42,4.75 -5.63,6.48l-4.7 -8.13c0.9,-0.85 1.69,-1.84 2.34,-2.97 3.13,-5.42 2,-12.13 -2.34,-16.26l4.69 -8.13c8.72,6.8 11.32,19.16 5.64,29.01z"/>
       <path class="fil2" style="mask:url(#id3)" d="M221.04 58.93c-1.49,-2.59 -2.41,-5.34 -2.8,-8.13l9.39 0c0.29,1.21 0.76,2.39 1.41,3.51 3.13,5.42 9.5,7.8 15.25,6.11l4.69 8.13c-10.25,4.15 -22.25,0.22 -27.94,-9.62z"/>
       <path class="fil2" style="mask:url(#id5)" d="M240.55 25.15c2.98,0 5.83,0.58 8.43,1.63l-4.69 8.13c-1.19,-0.35 -2.44,-0.53 -3.74,-0.53 -6.26,0 -11.51,4.32 -12.92,10.15l-9.38 0c1.52,-10.95 10.92,-19.38 22.3,-19.38z"/>
      </g>
     </g>
    </g>
    <path class="fil1" d="M240.55 25.15c12.44,0 22.52,10.08 22.52,22.52 0,12.43 -10.08,22.51 -22.52,22.51 -12.44,0 -22.52,-10.08 -22.52,-22.51 0,-12.44 10.08,-22.52 22.52,-22.52z"/>
    <g>
    </g>
    <g style="clip-path:url(#id7)">
     <g>
      <g>
       <path class="fil3" style="mask:url(#id8)" d="M231.73 42.57c-0.68,1.17 -1.09,2.42 -1.27,3.68l4.25 0c0.13,-0.55 0.34,-1.08 0.63,-1.59 1.42,-2.45 4.3,-3.53 6.9,-2.76l2.12 -3.68c-4.63,-1.88 -10.06,-0.1 -12.63,4.35z"/>
       <path class="fil3" style="mask:url(#id10)" d="M240.55 57.85c1.35,0 2.64,-0.26 3.82,-0.74l-2.13 -3.67c-0.53,0.15 -1.1,0.24 -1.69,0.24 -2.83,0 -5.2,-1.96 -5.84,-4.59l-4.25 0c0.69,4.95 4.95,8.76 10.09,8.76z"/>
       <path class="fil3" style="mask:url(#id12)" d="M249.37 42.57c-0.67,-1.16 -1.55,-2.15 -2.55,-2.93l-2.12 3.68c0.4,0.38 0.76,0.83 1.06,1.34 1.41,2.45 0.9,5.49 -1.06,7.36l2.12 3.67c3.95,-3.07 5.12,-8.66 2.55,-13.12z"/>
      </g>
     </g>
    </g>
    <path class="fil1" d="M249.37 42.57c-2.81,-4.87 -9.04,-6.54 -13.91,-3.72 -4.87,2.81 -6.54,9.04 -3.73,13.91 2.81,4.87 9.04,6.54 13.91,3.73 4.87,-2.82 6.54,-9.05 3.73,-13.92z"/>
   </g>
   <path class="fil4" d="M210.35 94.66l-4.41 0 0 11.21 -2.81 0 0 -11.21 -4.42 0 0 -2.28 11.64 0 0 2.28zm1.51 11.21l0 -13.49 2.79 0 0 13.49 -2.79 0zm12.35 -13.51l5.13 13.49 -3.05 0 -1.11 -3.16 -5.28 0 -1.09 3.16 -3.03 0 5.13 -13.49 3.3 0zm-1.67 2.25l-0.04 0c-0.04,0.23 -0.16,0.62 -0.34,1.18 -0.54,1.58 -1.08,3.16 -1.62,4.74l4.08 0c-0.63,-1.73 -1.2,-3.32 -1.74,-4.76 -0.21,-0.68 -0.32,-1.06 -0.34,-1.16zm19.77 11.26l-2.9 0c-1.84,-2.93 -3.68,-5.86 -5.52,-8.8 -0.13,-0.18 -0.37,-0.61 -0.73,-1.3l-0.01 0c0.03,0.53 0.05,1.3 0.05,2.31l0 7.79 -2.64 0 0 -13.49 3.06 0c1.78,2.85 3.57,5.7 5.35,8.56 0.34,0.55 0.58,1 0.72,1.32l0.03 0c-0.03,-0.42 -0.05,-1.09 -0.05,-2.01l-0.01 -7.87 2.65 0 0 13.49zm14.5 -0.02l-3.56 0 -3.51 -5.37 -2.05 0 0 5.39 -2.8 0 0 -13.49 6.18 0c1.61,0 2.86,0.38 3.76,1.13 0.84,0.71 1.26,1.65 1.26,2.82 0,1.1 -0.26,1.98 -0.77,2.62 -0.56,0.69 -1.43,1.14 -2.63,1.36l4.12 5.54zm-9.12 -11.31l0 3.82 2.87 0c0.9,0 1.55,-0.16 1.97,-0.47 0.4,-0.31 0.61,-0.78 0.61,-1.43 0,-0.64 -0.19,-1.12 -0.58,-1.43 -0.4,-0.32 -1.07,-0.49 -2,-0.49l-2.87 0zm20.75 11.3l-10.46 0 0 -13.49 10.23 0 0 2.29 -7.43 0 0 3.16 6.97 0 0 2.28 -6.97 0 0 3.48 7.66 0 0 2.28zm13.95 0.03l-2.9 0c-1.83,-2.93 -3.68,-5.86 -5.52,-8.8 -0.12,-0.18 -0.36,-0.61 -0.72,-1.3l-0.02 0c0.03,0.53 0.05,1.3 0.05,2.31l0 7.79 -2.64 0 0 -13.49 3.06 0c1.79,2.85 3.57,5.7 5.35,8.56 0.34,0.55 0.58,1 0.72,1.32l0.03 0c-0.03,-0.42 -0.05,-1.09 -0.05,-2.01l-0.01 -7.87 2.65 0 0 13.49z"/>
   <path class="fil4" d="M178.93 116.39l1.54 0c0.47,0.75 0.94,1.5 1.41,2.25 0.18,0.29 0.3,0.5 0.35,0.61l0.01 0c0.12,-0.19 0.23,-0.39 0.34,-0.59 0.45,-0.76 0.9,-1.52 1.34,-2.27l1.56 0 -2.62 3.9 0 2.63 -1.36 0 0 -2.61 -2.57 -3.92zm10.16 -0.11c0.97,0 1.75,0.34 2.34,1 0.57,0.64 0.85,1.44 0.85,2.4 0,1.01 -0.3,1.82 -0.89,2.44 -0.59,0.62 -1.36,0.92 -2.32,0.92 -0.94,0 -1.71,-0.3 -2.3,-0.92 -0.6,-0.62 -0.91,-1.44 -0.91,-2.44 0,-1.01 0.28,-1.82 0.85,-2.43 0.58,-0.65 1.38,-0.97 2.38,-0.97zm-0.06 5.59c0.56,0 0.99,-0.2 1.31,-0.58 0.31,-0.39 0.46,-0.93 0.46,-1.61 0,-0.69 -0.15,-1.23 -0.47,-1.63 -0.32,-0.4 -0.75,-0.61 -1.29,-0.61 -0.51,0 -0.93,0.21 -1.26,0.61 -0.34,0.41 -0.5,0.95 -0.5,1.62 0,0.69 0.17,1.23 0.51,1.63 0.33,0.38 0.74,0.57 1.24,0.57zm4.3 -1.77l0 -3.71 1.36 0 0 3.71c0,0.61 0.14,1.06 0.43,1.35 0.26,0.27 0.62,0.41 1.09,0.41 1,0 1.5,-0.59 1.5,-1.77l0 -3.7 1.35 0 0 3.67c0,1.98 -0.97,2.97 -2.9,2.97 -1.87,0 -2.81,-0.98 -2.83,-2.93zm12.85 2.82l-1.72 0 -1.7 -2.61 -0.99 0 0 2.61 -1.36 0 0 -6.53 2.99 0c0.78,0 1.39,0.18 1.82,0.55 0.41,0.34 0.61,0.79 0.61,1.36 0,0.54 -0.12,0.96 -0.37,1.27 -0.27,0.34 -0.69,0.56 -1.27,0.66l1.99 2.69zm-4.41 -5.48l0 1.85 1.39 0c0.43,0 0.75,-0.08 0.95,-0.23 0.2,-0.15 0.29,-0.38 0.29,-0.7 0,-0.31 -0.09,-0.54 -0.27,-0.69 -0.2,-0.15 -0.52,-0.23 -0.97,-0.23l-1.39 0zm16.28 5.48l-1.73 0 -1.69 -2.61 -1 0 0 2.61 -1.36 0 0 -6.53 3 0c0.78,0 1.38,0.18 1.82,0.55 0.4,0.34 0.61,0.79 0.61,1.36 0,0.54 -0.13,0.96 -0.37,1.27 -0.27,0.34 -0.7,0.56 -1.28,0.66l2 2.69zm-4.42 -5.48l0 1.85 1.39 0c0.44,0 0.75,-0.08 0.96,-0.23 0.19,-0.15 0.29,-0.38 0.29,-0.7 0,-0.31 -0.09,-0.54 -0.28,-0.69 -0.19,-0.15 -0.52,-0.23 -0.97,-0.23l-1.39 0zm10.19 5.47l-5.06 0 0 -6.54 4.95 0 0 1.11 -3.6 0 0 1.54 3.38 0 0 1.1 -3.38 0 0 1.68 3.71 0 0 1.11zm7.95 0.01l-1.35 0 0 -4.01c0,-0.52 0.03,-1 0.07,-1.44l-0.03 0c-0.09,0.44 -0.18,0.81 -0.25,1.1 -0.06,0.22 -0.48,1.67 -1.26,4.35l-1.16 0c-0.58,-1.87 -1.03,-3.33 -1.34,-4.39 -0.15,-0.5 -0.25,-0.86 -0.28,-1.06l-0.03 0.01c0.03,0.47 0.04,1.03 0.04,1.66l0 3.78 -1.22 0 0 -6.53 2.01 0c0.57,1.94 1,3.39 1.28,4.36 0.05,0.25 0.08,0.48 0.09,0.7l0.02 0c0.02,-0.18 0.06,-0.41 0.12,-0.69 0.4,-1.46 0.8,-2.92 1.2,-4.37l2.09 0 0 6.53zm4.29 -6.64c0.97,0 1.75,0.34 2.35,1 0.56,0.64 0.85,1.44 0.85,2.4 0,1.01 -0.3,1.82 -0.89,2.44 -0.59,0.62 -1.36,0.92 -2.32,0.92 -0.94,0 -1.71,-0.3 -2.3,-0.92 -0.61,-0.62 -0.91,-1.44 -0.91,-2.44 0,-1.01 0.28,-1.82 0.84,-2.43 0.59,-0.65 1.38,-0.97 2.38,-0.97zm-0.05 5.59c0.55,0 0.99,-0.2 1.3,-0.58 0.31,-0.39 0.47,-0.93 0.47,-1.61 0,-0.69 -0.16,-1.23 -0.48,-1.63 -0.31,-0.4 -0.74,-0.61 -1.28,-0.61 -0.52,0 -0.94,0.21 -1.27,0.61 -0.33,0.41 -0.5,0.95 -0.5,1.62 0,0.69 0.18,1.23 0.52,1.63 0.32,0.38 0.74,0.57 1.24,0.57zm9.46 -4.38l-2.14 0 0 5.43 -1.36 0 0 -5.43 -2.14 0 0 -1.1 5.64 0 0 1.1zm5.92 5.42l-5.07 0 0 -6.54 4.96 0 0 1.11 -3.6 0 0 1.54 3.37 0 0 1.1 -3.37 0 0 1.68 3.71 0 0 1.11zm8.62 0.01l-2.13 0 0 -6.53 2.05 0c1.17,0 2.05,0.29 2.65,0.86 0.57,0.55 0.86,1.33 0.86,2.33 0,1.18 -0.27,2.03 -0.81,2.55 -0.54,0.53 -1.41,0.79 -2.62,0.79zm-0.12 -5.43l-0.66 0 0 4.33 0.67 0c1.41,0 2.11,-0.74 2.11,-2.22 0,-0.64 -0.17,-1.15 -0.52,-1.52 -0.37,-0.39 -0.9,-0.59 -1.6,-0.59zm9.76 5.42l-5.07 0 0 -6.54 4.96 0 0 1.11 -3.6 0 0 1.54 3.37 0 0 1.1 -3.37 0 0 1.68 3.71 0 0 1.11zm0.87 -2.07l1.32 -0.28c0.14,0.96 0.66,1.42 1.55,1.4 0.36,0 0.64,-0.08 0.85,-0.24 0.19,-0.16 0.29,-0.36 0.29,-0.6 0,-0.21 -0.06,-0.37 -0.17,-0.5 -0.13,-0.15 -0.35,-0.28 -0.67,-0.4 -0.31,-0.11 -0.69,-0.22 -1.14,-0.33 -0.66,-0.16 -1.13,-0.38 -1.41,-0.68 -0.27,-0.28 -0.4,-0.67 -0.4,-1.17 0,-0.49 0.21,-0.91 0.64,-1.24 0.45,-0.34 1.02,-0.52 1.73,-0.52 0.8,0 1.41,0.16 1.84,0.46 0.42,0.3 0.7,0.75 0.84,1.36l-1.34 0.26c-0.04,-0.31 -0.16,-0.55 -0.37,-0.73 -0.22,-0.18 -0.51,-0.27 -0.9,-0.27 -0.32,0 -0.58,0.07 -0.77,0.21 -0.16,0.13 -0.24,0.29 -0.24,0.48 0,0.22 0.08,0.39 0.25,0.51 0.18,0.13 0.5,0.25 0.97,0.35 0.52,0.12 0.99,0.27 1.38,0.46 0.42,0.2 0.73,0.45 0.93,0.77 0.18,0.27 0.27,0.58 0.27,0.93 0,0.58 -0.21,1.05 -0.63,1.4 -0.45,0.38 -1.09,0.57 -1.91,0.57 -0.87,0 -1.54,-0.18 -2,-0.55 -0.45,-0.34 -0.76,-0.9 -0.91,-1.65zm12.65 2.08l-1.73 0 -1.95 -2.9 -1.06 1.11 0 1.79 -1.36 0 0 -6.53 1.36 0 0 3.07 2.84 -3.06 1.69 0 -2.63 2.74 2.84 3.78zm5.8 -5.43l-2.13 0 0 5.43 -1.36 0 0 -5.43 -2.14 0 0 -1.1 5.63 0 0 1.1zm3.79 -1.21c0.97,0 1.75,0.34 2.35,1 0.56,0.64 0.85,1.44 0.85,2.4 0,1.01 -0.3,1.82 -0.89,2.44 -0.59,0.62 -1.36,0.92 -2.32,0.92 -0.94,0 -1.71,-0.3 -2.3,-0.92 -0.61,-0.62 -0.91,-1.44 -0.91,-2.44 0,-1.01 0.28,-1.82 0.84,-2.43 0.59,-0.65 1.38,-0.97 2.38,-0.97zm-0.05 5.59c0.56,0 0.99,-0.2 1.3,-0.58 0.31,-0.39 0.47,-0.93 0.47,-1.61 0,-0.69 -0.16,-1.23 -0.48,-1.63 -0.31,-0.4 -0.74,-0.61 -1.28,-0.61 -0.52,0 -0.94,0.21 -1.27,0.61 -0.33,0.41 -0.5,0.95 -0.5,1.62 0,0.69 0.18,1.23 0.52,1.63 0.32,0.38 0.74,0.57 1.24,0.57zm6.9 -1.32l-1.23 0 0 2.37 -1.35 0 0 -6.53 2.71 0c0.79,0 1.4,0.19 1.83,0.59 0.4,0.36 0.6,0.84 0.6,1.44 0,1.42 -0.85,2.13 -2.56,2.13zm-0.12 -3.11l-1.11 0 0 2.08 1.11 0c0.83,-0.01 1.24,-0.37 1.25,-1.06 0,-0.31 -0.1,-0.56 -0.3,-0.74 -0.22,-0.19 -0.53,-0.28 -0.95,-0.28z"/>
  </g>
 </g>
</svg>
