<?xml version="1.0" encoding="UTF-8"?>
<!DOCTYPE svg PUBLIC "-//W3C//DTD SVG 1.1//EN" "http://www.w3.org/Graphics/SVG/1.1/DTD/svg11.dtd">
<!-- Creator: CorelDRAW -->
<svg xmlns="http://www.w3.org/2000/svg" xml:space="preserve" width="3840px" height="2689px" version="1.1" style="shape-rendering:geometricPrecision; text-rendering:geometricPrecision; image-rendering:optimizeQuality; fill-rule:evenodd; clip-rule:evenodd"
viewBox="0 0 1847.42 1293.19"
 xmlns:xlink="http://www.w3.org/1999/xlink"
 xmlns:xodm="http://www.corel.com/coreldraw/odm/2003">
 <defs>
  <style type="text/css">
   <![CDATA[
    .fil0 {fill:none}
    .fil2 {fill:#D900FF}
    .fil1 {fill:fuchsia}
    .fil3 {fill:#332C2B;fill-rule:nonzero}
   ]]>
  </style>
      <clipPath id="id0">
       <path d="M214.88 434.83c116.85,0 211.58,94.73 211.58,211.59 0,116.85 -94.73,211.58 -211.58,211.58 -116.86,0 -211.59,-94.73 -211.59,-211.58 0,-116.86 94.73,-211.59 211.59,-211.59z"/>
      </clipPath>
         <mask id="id1">
  <linearGradient id="id2" gradientUnits="userSpaceOnUse" x1="441.17" y1="627.33" x2="290.88" y2="700.84">
   <stop offset="0" style="stop-opacity:1; stop-color:white"/>
   <stop offset="0.490196" style="stop-opacity:0.501961; stop-color:white"/>
   <stop offset="1" style="stop-opacity:0; stop-color:white"/>
  </linearGradient>
          <rect style="fill:url(#id2)" x="300.14" y="478.78" width="127.24" height="335.31"/>
         </mask>
         <mask id="id3">
  <linearGradient id="id4" gradientUnits="userSpaceOnUse" x1="118.22" y1="851.97" x2="129.71" y2="685.06">
   <stop offset="0" style="stop-opacity:1; stop-color:white"/>
   <stop offset="0.490196" style="stop-opacity:0.501961; stop-color:white"/>
   <stop offset="1" style="stop-opacity:0; stop-color:white"/>
  </linearGradient>
          <rect style="fill:url(#id4)" x="4.37" y="674.98" width="290.63" height="183.97"/>
         </mask>
         <mask id="id5">
  <linearGradient id="id6" gradientUnits="userSpaceOnUse" x1="85.15" y1="459.96" x2="223.95" y2="553.36">
   <stop offset="0" style="stop-opacity:1; stop-color:white"/>
   <stop offset="0.490196" style="stop-opacity:0.501961; stop-color:white"/>
   <stop offset="1" style="stop-opacity:0; stop-color:white"/>
  </linearGradient>
          <rect style="fill:url(#id6)" x="4.4" y="433.91" width="290.62" height="183.94"/>
         </mask>
      <clipPath id="id7">
       <path d="M297.75 598.57c-26.42,-45.77 -84.95,-61.45 -130.72,-35.03 -45.77,26.43 -61.45,84.95 -35.03,130.72 26.43,45.77 84.95,61.46 130.73,35.03 45.77,-26.42 61.45,-84.95 35.02,-130.72z"/>
      </clipPath>
         <mask id="id8">
  <linearGradient id="id9" gradientUnits="userSpaceOnUse" x1="171.18" y1="553.47" x2="176.38" y2="628.96">
   <stop offset="0" style="stop-opacity:1; stop-color:white"/>
   <stop offset="0.490196" style="stop-opacity:0.501961; stop-color:white"/>
   <stop offset="1" style="stop-opacity:0; stop-color:white"/>
  </linearGradient>
          <rect style="fill:url(#id9)" x="119.18" y="549.8" width="132.46" height="84.22"/>
         </mask>
         <mask id="id10">
  <linearGradient id="id11" gradientUnits="userSpaceOnUse" x1="156.22" y1="730.76" x2="219" y2="688.52">
   <stop offset="0" style="stop-opacity:1; stop-color:white"/>
   <stop offset="0.490196" style="stop-opacity:0.501961; stop-color:white"/>
   <stop offset="1" style="stop-opacity:0; stop-color:white"/>
  </linearGradient>
          <rect style="fill:url(#id11)" x="119.2" y="658.84" width="132.45" height="84.21"/>
         </mask>
         <mask id="id12">
  <linearGradient id="id13" gradientUnits="userSpaceOnUse" x1="317.25" y1="655.06" x2="249.27" y2="621.82">
   <stop offset="0" style="stop-opacity:1; stop-color:white"/>
   <stop offset="0.490196" style="stop-opacity:0.501961; stop-color:white"/>
   <stop offset="1" style="stop-opacity:0; stop-color:white"/>
  </linearGradient>
          <rect style="fill:url(#id13)" x="252.96" y="570.09" width="58.55" height="152.66"/>
         </mask>
 </defs>
 <g id="圖層_x0020_1">
  <metadata id="CorelCorpID_0Corel-Layer"/>
  <g id="_3225412339712">
   <rect class="fil0" width="1847.42" height="1293.19"/>
   <g>
    <g>
     <rect class="fil0" x="2.42" y="433.96" width="424.91" height="424.91" rx="62.32" ry="62.32"/>
     <g>
     </g>
     <g style="clip-path:url(#id0)">
      <g>
       <g>
        <path class="fil1" style="mask:url(#id1)" d="M398.09 752.21c-14.02,24.28 -32.12,44.71 -52.93,60.96l-44.1 -76.38c8.4,-8.03 15.83,-17.36 21.93,-27.93 29.4,-50.93 18.85,-113.96 -21.93,-152.8l44.09 -76.36c81.93,63.88 106.36,179.98 52.94,272.51z"/>
        <path class="fil1" style="mask:url(#id3)" d="M31.61 752.21c-14.01,-24.27 -22.65,-50.16 -26.32,-76.31l88.2 0c2.74,11.29 7.11,22.38 13.22,32.95 29.4,50.94 89.26,73.31 143.29,57.41l44.08 76.36c-96.29,39.03 -209.05,2.13 -262.47,-90.41z"/>
        <path class="fil1" style="mask:url(#id5)" d="M214.85 434.83c28.02,0 54.77,5.46 79.25,15.36l-44.1 76.38c-11.15,-3.26 -22.95,-5.03 -35.15,-5.03 -58.81,0 -108.11,40.66 -121.36,95.39l-88.17 0c14.34,-102.89 102.68,-182.1 209.53,-182.1z"/>
       </g>
      </g>
     </g>
     <path class="fil0" d="M214.88 434.83c116.85,0 211.58,94.73 211.58,211.59 0,116.85 -94.73,211.58 -211.58,211.58 -116.86,0 -211.59,-94.73 -211.59,-211.58 0,-116.86 94.73,-211.59 211.59,-211.59z"/>
     <g>
     </g>
     <g style="clip-path:url(#id7)">
      <g>
       <g>
        <path class="fil2" style="mask:url(#id8)" d="M132.01 598.59c-6.34,10.97 -10.25,22.68 -11.91,34.51l39.89 0c1.24,-5.11 3.22,-10.13 5.98,-14.91 13.3,-23.03 40.38,-33.15 64.81,-25.96l19.94 -34.54c-43.55,-17.65 -94.55,-0.96 -118.71,40.9z"/>
        <path class="fil2" style="mask:url(#id10)" d="M214.88 742.13c12.67,-0.01 24.77,-2.48 35.85,-6.95l-19.95 -34.55c-5.04,1.48 -10.37,2.28 -15.9,2.28 -26.59,0 -48.89,-18.39 -54.89,-43.15l-39.87 0c6.49,46.54 46.44,82.37 94.76,82.37z"/>
        <path class="fil2" style="mask:url(#id12)" d="M297.76 598.58c-6.34,-10.97 -14.53,-20.22 -23.94,-27.57l-19.94 34.55c3.8,3.63 7.16,7.85 9.92,12.63 13.29,23.04 8.52,51.54 -9.92,69.11l19.94 34.53c37.05,-28.89 48.1,-81.4 23.94,-123.25z"/>
       </g>
      </g>
     </g>
     <path class="fil0" d="M297.75 598.57c-26.42,-45.77 -84.95,-61.45 -130.72,-35.03 -45.77,26.43 -61.45,84.95 -35.03,130.72 26.43,45.77 84.95,61.46 130.73,35.03 45.77,-26.42 61.45,-84.95 35.02,-130.72z"/>
    </g>
    <g>
     <path class="fil3" d="M715.77 528.15l-69.12 0 0 175.76 -43.95 0 0 -175.76 -69.37 0 0 -35.71 182.44 0 0 35.71zm23.71 175.76l0 -211.47 43.68 0 0 211.47 -43.68 0zm193.55 -211.73l80.43 211.48 -47.79 0 -17.48 -49.6 -82.73 0 -16.97 49.6 -47.53 0 80.42 -211.48 51.65 0zm-26.21 35.2l-0.51 0c-0.69,3.6 -2.49,9.77 -5.4,18.5 -8.39,24.84 -16.87,49.6 -25.43,74.26l63.98 0c-9.77,-27.06 -18.85,-51.9 -27.24,-74.51 -3.26,-10.62 -5.05,-16.7 -5.4,-18.25zm309.96 176.53l-45.48 0c-28.77,-45.91 -57.64,-91.9 -86.59,-137.98 -1.89,-2.74 -5.65,-9.51 -11.31,-20.3l-0.25 0c0.51,8.22 0.77,20.3 0.77,36.23l0 122.05 -41.37 0 0 -211.47 48.05 0c27.92,44.71 55.84,89.42 83.77,134.13 5.31,8.74 9.07,15.67 11.3,20.81l0.52 0c-0.52,-6.68 -0.78,-17.21 -0.78,-31.6l-0.25 -123.34 41.62 0 0 211.47zm227.22 -0.25l-55.76 0 -54.99 -84.29 -32.11 0 0 84.54 -43.94 0 0 -211.47 96.87 0c25.18,0 44.79,5.91 58.84,17.73 13.19,11.13 19.79,25.86 19.79,44.19 0,17.3 -4.03,31.01 -12.08,41.12 -8.74,10.79 -22.44,17.9 -41.11,21.32l64.49 86.86zm-142.86 -177.31l0 59.88 44.96 0c14.05,0 24.33,-2.49 30.84,-7.45 6.34,-4.8 9.5,-12.25 9.5,-22.36 0,-10.11 -2.99,-17.56 -8.99,-22.36 -6.33,-5.13 -16.79,-7.71 -31.35,-7.71l-44.96 0zm325.12 177.05l-163.94 0 0 -211.48 160.34 0 0 35.98 -116.4 0 0 49.59 109.2 0 0 35.72 -109.2 0 0 54.47 120 0 0 35.72zm218.74 0.51l-45.49 0c-28.77,-45.91 -57.64,-91.9 -86.59,-137.98 -1.89,-2.74 -5.65,-9.51 -11.31,-20.3l-0.25 0c0.51,8.22 0.77,20.3 0.77,36.23l0 122.05 -41.37 0 0 -211.47 48.05 0c27.92,44.71 55.85,89.42 83.77,134.13 5.31,8.74 9.08,15.67 11.31,20.81l0.51 0c-0.51,-6.68 -0.78,-17.21 -0.78,-31.6l-0.25 -123.34 41.63 0 0 211.47z"/>
     <path class="fil3" d="M533.33 730.08l16.4 0c5.01,8 10.02,16 15.04,24 1.86,3.1 3.1,5.27 3.72,6.51l0.08 0c1.24,-2.08 2.45,-4.19 3.64,-6.34 4.79,-8.05 9.55,-16.11 14.28,-24.17l16.57 0 -27.89 41.5 0 28.06 -14.46 0 0 -27.81 -27.38 -41.75zm108.12 -1.1c10.31,0 18.62,3.55 24.94,10.65 6.03,6.76 9.04,15.24 9.04,25.44 0,10.77 -3.15,19.44 -9.47,26.03 -6.25,6.54 -14.48,9.81 -24.68,9.81 -10.03,0 -18.2,-3.27 -24.51,-9.81 -6.42,-6.64 -9.63,-15.32 -9.63,-26.03 0,-10.7 2.98,-19.32 8.96,-25.86 6.25,-6.82 14.7,-10.23 25.35,-10.23zm-0.59 59.42c5.92,0 10.54,-2.06 13.86,-6.17 3.33,-4.11 4.99,-9.83 4.99,-17.16 0,-7.27 -1.69,-13.04 -5.07,-17.33 -3.38,-4.28 -7.95,-6.42 -13.7,-6.42 -5.46,0 -9.94,2.14 -13.43,6.42 -3.55,4.4 -5.33,10.15 -5.33,17.25 0,7.32 1.83,13.13 5.49,17.41 3.44,4 7.84,6 13.19,6zm45.75 -18.76l0 -39.56 14.45 0 0 39.56c0,6.42 1.52,11.21 4.56,14.37 2.77,2.87 6.62,4.31 11.58,4.31 10.65,0 15.98,-6.29 15.98,-18.85l0 -39.39 14.37 0 0 39.13c0,21.08 -10.29,31.62 -30.85,31.62 -19.89,-0.06 -29.93,-10.46 -30.09,-31.19zm136.77 29.92l-18.34 0 -18.09 -27.73 -10.56 0 0 27.81 -14.46 0 0 -69.56 31.87 0c8.28,0 14.73,1.95 19.35,5.83 4.34,3.66 6.51,8.51 6.51,14.54 0,5.69 -1.32,10.2 -3.97,13.52 -2.87,3.56 -7.38,5.89 -13.52,7.02l21.21 28.57zm-46.99 -58.32l0 19.69 14.79 0c4.62,0 8,-0.82 10.14,-2.45 2.09,-1.58 3.13,-4.03 3.13,-7.35 0,-3.33 -0.99,-5.78 -2.96,-7.36 -2.09,-1.69 -5.52,-2.53 -10.31,-2.53l-14.79 0zm173.29 58.32l-18.35 0 -18.08 -27.73 -10.57 0 0 27.81 -14.45 0 0 -69.56 31.87 0c8.28,0 14.73,1.95 19.35,5.83 4.34,3.66 6.51,8.51 6.51,14.54 0,5.69 -1.32,10.2 -3.97,13.52 -2.88,3.56 -7.39,5.89 -13.53,7.02l21.22 28.57zm-47 -58.32l0 19.69 14.79 0c4.63,0 8,-0.82 10.15,-2.45 2.08,-1.58 3.12,-4.03 3.12,-7.35 0,-3.33 -0.98,-5.78 -2.95,-7.36 -2.09,-1.69 -5.53,-2.53 -10.32,-2.53l-14.79 0zm108.46 58.23l-53.92 0 0 -69.56 52.74 0 0 11.83 -38.29 0 0 16.32 35.93 0 0 11.75 -35.93 0 0 17.91 39.47 0 0 11.75zm84.55 0.17l-14.29 0 0 -42.68c0,-5.52 0.23,-10.65 0.68,-15.39l-0.26 0c-1.01,4.74 -1.91,8.66 -2.7,11.75 -0.68,2.32 -5.15,17.73 -13.44,46.24l-12.34 0c-6.14,-19.89 -10.9,-35.45 -14.28,-46.66 -1.58,-5.35 -2.57,-9.13 -2.96,-11.33l-0.34 0.09c0.34,5.07 0.51,10.96 0.51,17.66l0 40.32 -13.02 0 0 -69.56 21.38 0c6.09,20.62 10.63,36.09 13.61,46.4 0.57,2.65 0.9,5.16 1.02,7.53l0.16 0c0.17,-1.98 0.6,-4.45 1.27,-7.44 4.29,-15.5 8.54,-30.99 12.77,-46.49l22.23 0 0 69.56zm45.74 -70.66c10.31,0 18.62,3.55 24.94,10.65 6.02,6.76 9.04,15.24 9.04,25.44 0,10.77 -3.16,19.44 -9.47,26.03 -6.25,6.54 -14.48,9.81 -24.68,9.81 -10.03,0 -18.2,-3.27 -24.51,-9.81 -6.43,-6.64 -9.64,-15.32 -9.64,-26.03 0,-10.7 2.99,-19.32 8.96,-25.86 6.26,-6.82 14.71,-10.23 25.36,-10.23zm-0.59 59.42c5.91,0 10.54,-2.06 13.86,-6.17 3.32,-4.11 4.99,-9.83 4.99,-17.16 0,-7.27 -1.69,-13.04 -5.07,-17.33 -3.39,-4.28 -7.95,-6.42 -13.7,-6.42 -5.46,0 -9.94,2.14 -13.44,6.42 -3.55,4.4 -5.32,10.15 -5.32,17.25 0,7.32 1.83,13.13 5.49,17.41 3.44,4 7.83,6 13.19,6zm100.68 -46.57l-22.73 0 0 57.81 -14.46 0 0 -57.81 -22.82 0 0 -11.75 60.01 0 0 11.75zm62.99 57.64l-53.92 0 0 -69.56 52.74 0 0 11.83 -38.29 0 0 16.32 35.92 0 0 11.75 -35.92 0 0 17.91 39.47 0 0 11.75zm91.73 0.17l-22.65 0 0 -69.56 21.89 0c12.39,0 21.77,3.07 28.14,9.21 6.09,5.86 9.13,14.12 9.13,24.77 0,12.51 -2.84,21.55 -8.53,27.13 -5.75,5.63 -15.08,8.45 -27.98,8.45zm-1.19 -57.81l-7.09 0 0 46.06 7.18 0c14.99,0 22.48,-7.88 22.48,-23.66 0,-6.82 -1.86,-12.2 -5.58,-16.15 -3.94,-4.17 -9.6,-6.25 -16.99,-6.25zm103.82 57.64l-53.93 0 0 -69.56 52.74 0 0 11.83 -38.28 0 0 16.32 35.92 0 0 11.75 -35.92 0 0 17.91 39.47 0 0 11.75zm9.23 -21.97l14.11 -2.96c1.47,10.14 6.96,15.1 16.49,14.88 3.83,0 6.84,-0.88 9.04,-2.62 2.03,-1.64 3.04,-3.75 3.04,-6.34 0,-2.2 -0.59,-3.98 -1.77,-5.33 -1.36,-1.58 -3.72,-2.99 -7.1,-4.23 -3.33,-1.23 -7.38,-2.42 -12.17,-3.54 -6.99,-1.7 -11.98,-4.09 -14.96,-7.19 -2.88,-3.04 -4.32,-7.21 -4.32,-12.51 0,-5.24 2.29,-9.63 6.85,-13.19 4.73,-3.66 10.88,-5.49 18.43,-5.49 8.45,0 14.99,1.63 19.61,4.9 4.39,3.1 7.35,7.92 8.87,14.46l-14.2 2.79c-0.45,-3.33 -1.77,-5.92 -3.97,-7.78 -2.31,-1.97 -5.5,-2.96 -9.55,-2.96 -3.5,0 -6.23,0.76 -8.2,2.28 -1.75,1.36 -2.62,3.05 -2.62,5.07 0,2.37 0.9,4.2 2.7,5.5 1.86,1.35 5.3,2.59 10.32,3.72 5.57,1.24 10.48,2.87 14.7,4.9 4.45,2.09 7.75,4.79 9.89,8.11 1.92,2.93 2.87,6.23 2.87,9.9 0,6.25 -2.22,11.23 -6.67,14.95 -4.85,4.06 -11.64,6.09 -20.37,6.09 -9.24,0 -16.34,-1.94 -21.3,-5.83 -4.79,-3.72 -8.03,-9.58 -9.72,-17.58zm134.66 22.06l-18.42 0 -20.71 -30.77 -11.33 11.75 0 19.1 -14.45 0 0 -69.56 14.45 0 0 32.71 30.26 -32.63 18 0 -27.97 29.16 30.17 40.24zm61.81 -57.73l-22.74 0 0 57.81 -14.45 0 0 -57.81 -22.83 0 0 -11.75 60.02 0 0 11.75zm40.33 -12.85c10.31,0 18.62,3.55 24.94,10.65 6.03,6.76 9.04,15.24 9.04,25.44 0,10.77 -3.15,19.44 -9.47,26.03 -6.25,6.54 -14.48,9.81 -24.68,9.81 -10.03,0 -18.2,-3.27 -24.51,-9.81 -6.42,-6.64 -9.63,-15.32 -9.63,-26.03 0,-10.7 2.98,-19.32 8.95,-25.86 6.26,-6.82 14.71,-10.23 25.36,-10.23zm-0.59 59.42c5.92,0 10.54,-2.06 13.86,-6.17 3.33,-4.11 4.99,-9.83 4.99,-17.16 0,-7.27 -1.69,-13.04 -5.07,-17.33 -3.38,-4.28 -7.95,-6.42 -13.7,-6.42 -5.46,0 -9.94,2.14 -13.43,6.42 -3.55,4.4 -5.33,10.15 -5.33,17.25 0,7.32 1.83,13.13 5.49,17.41 3.44,4 7.84,6 13.19,6zm73.47 -14.03l-13.1 0 0 25.27 -14.37 0 0 -69.56 28.82 0c8.4,0 14.88,2.09 19.44,6.25 4.29,3.89 6.43,9.02 6.43,15.39 0,15.1 -9.08,22.65 -27.22,22.65zm-1.27 -33.13l-11.83 0 0 22.14 11.83 0c8.79,-0.11 13.22,-3.86 13.27,-11.24 0,-3.33 -1.07,-5.94 -3.21,-7.86 -2.31,-2.03 -5.66,-3.04 -10.06,-3.04z"/>
    </g>
   </g>
  </g>
 </g>
</svg>
