<?xml version="1.0" encoding="UTF-8"?>
<!DOCTYPE svg PUBLIC "-//W3C//DTD SVG 1.1//EN" "http://www.w3.org/Graphics/SVG/1.1/DTD/svg11.dtd">
<!-- Creator: CorelDRAW -->
<svg xmlns="http://www.w3.org/2000/svg" xml:space="preserve" width="32px" height="32px" version="1.1" style="shape-rendering:geometricPrecision; text-rendering:geometricPrecision; image-rendering:optimizeQuality; fill-rule:evenodd; clip-rule:evenodd"
viewBox="0 0 3.54 3.54"
 xmlns:xlink="http://www.w3.org/1999/xlink"
 xmlns:xodm="http://www.corel.com/coreldraw/odm/2003">
 <defs>
  <style type="text/css">
   <![CDATA[
    .fil0 {fill:none}
    .fil2 {fill:#D900FF}
    .fil1 {fill:fuchsia}
   ]]>
  </style>
    <clipPath id="id0">
     <path d="M1.77 0.01c0.97,0 1.76,0.79 1.76,1.76 0,0.97 -0.79,1.76 -1.76,1.76 -0.97,0 -1.76,-0.79 -1.76,-1.76 0,-0.97 0.79,-1.76 1.76,-1.76z"/>
    </clipPath>
       <mask id="id1">
  <linearGradient id="id2" gradientUnits="userSpaceOnUse" x1="3.66" y1="1.61" x2="2.4" y2="2.22">
   <stop offset="0" style="stop-opacity:1; stop-color:white"/>
   <stop offset="0.490196" style="stop-opacity:0.501961; stop-color:white"/>
   <stop offset="1" style="stop-opacity:0; stop-color:white"/>
  </linearGradient>
        <rect style="fill:url(#id2)" x="2.48" y="0.37" width="1.06" height="2.8"/>
       </mask>
       <mask id="id3">
  <linearGradient id="id4" gradientUnits="userSpaceOnUse" x1="0.97" y1="3.48" x2="1.06" y2="2.09">
   <stop offset="0" style="stop-opacity:1; stop-color:white"/>
   <stop offset="0.490196" style="stop-opacity:0.501961; stop-color:white"/>
   <stop offset="1" style="stop-opacity:0; stop-color:white"/>
  </linearGradient>
        <rect style="fill:url(#id4)" x="0.01" y="2.01" width="2.43" height="1.53"/>
       </mask>
       <mask id="id5">
  <linearGradient id="id6" gradientUnits="userSpaceOnUse" x1="0.69" y1="0.22" x2="1.85" y2="1">
   <stop offset="0" style="stop-opacity:1; stop-color:white"/>
   <stop offset="0.490196" style="stop-opacity:0.501961; stop-color:white"/>
   <stop offset="1" style="stop-opacity:0; stop-color:white"/>
  </linearGradient>
        <rect style="fill:url(#id6)" x="0.01" width="2.43" height="1.53"/>
       </mask>
    <clipPath id="id7">
     <path d="M2.46 1.37c-0.22,-0.38 -0.71,-0.51 -1.09,-0.29 -0.38,0.22 -0.51,0.71 -0.29,1.09 0.22,0.38 0.71,0.51 1.09,0.29 0.38,-0.22 0.51,-0.71 0.29,-1.09z"/>
    </clipPath>
       <mask id="id8">
  <linearGradient id="id9" gradientUnits="userSpaceOnUse" x1="1.41" y1="1" x2="1.45" y2="1.63">
   <stop offset="0" style="stop-opacity:1; stop-color:white"/>
   <stop offset="0.490196" style="stop-opacity:0.501961; stop-color:white"/>
   <stop offset="1" style="stop-opacity:0; stop-color:white"/>
  </linearGradient>
        <rect style="fill:url(#id9)" x="0.97" y="0.96" width="1.11" height="0.71"/>
       </mask>
       <mask id="id10">
  <linearGradient id="id11" gradientUnits="userSpaceOnUse" x1="1.28" y1="2.47" x2="1.8" y2="2.12">
   <stop offset="0" style="stop-opacity:1; stop-color:white"/>
   <stop offset="0.490196" style="stop-opacity:0.501961; stop-color:white"/>
   <stop offset="1" style="stop-opacity:0; stop-color:white"/>
  </linearGradient>
        <rect style="fill:url(#id11)" x="0.97" y="1.87" width="1.11" height="0.71"/>
       </mask>
       <mask id="id12">
  <linearGradient id="id13" gradientUnits="userSpaceOnUse" x1="2.62" y1="1.84" x2="2.06" y2="1.57">
   <stop offset="0" style="stop-opacity:1; stop-color:white"/>
   <stop offset="0.490196" style="stop-opacity:0.501961; stop-color:white"/>
   <stop offset="1" style="stop-opacity:0; stop-color:white"/>
  </linearGradient>
        <rect style="fill:url(#id13)" x="2.09" y="1.13" width="0.49" height="1.28"/>
       </mask>
 </defs>
 <g id="圖層_x0020_1">
  <metadata id="CorelCorpID_0Corel-Layer"/>
  <g id="_3225421281936">
   <rect class="fil0" width="3.54" height="3.54" rx="0.52" ry="0.52"/>
   <g>
   </g>
   <g style="clip-path:url(#id0)">
    <g>
     <g>
      <path class="fil1" style="mask:url(#id1)" d="M3.3 2.65c-0.12,0.2 -0.27,0.37 -0.44,0.51l-0.37 -0.64c0.07,-0.06 0.13,-0.14 0.18,-0.23 0.25,-0.42 0.16,-0.95 -0.18,-1.27l0.37 -0.64c0.68,0.53 0.88,1.5 0.44,2.27z"/>
      <path class="fil1" style="mask:url(#id3)" d="M0.24 2.65c-0.11,-0.2 -0.19,-0.42 -0.22,-0.63l0.74 0c0.02,0.09 0.06,0.18 0.11,0.27 0.24,0.43 0.74,0.61 1.19,0.48l0.37 0.64c-0.8,0.32 -1.74,0.01 -2.19,-0.76z"/>
      <path class="fil1" style="mask:url(#id5)" d="M1.77 0.01c0.23,0 0.46,0.04 0.66,0.13l-0.37 0.63c-0.09,-0.03 -0.19,-0.04 -0.29,-0.04 -0.49,0 -0.9,0.34 -1.01,0.79l-0.74 0c0.12,-0.85 0.86,-1.51 1.75,-1.51z"/>
     </g>
    </g>
   </g>
   <path class="fil0" d="M1.77 0.01c0.97,0 1.76,0.79 1.76,1.76 0,0.97 -0.79,1.76 -1.76,1.76 -0.97,0 -1.76,-0.79 -1.76,-1.76 0,-0.97 0.79,-1.76 1.76,-1.76z"/>
   <g>
   </g>
   <g style="clip-path:url(#id7)">
    <g>
     <g>
      <path class="fil2" style="mask:url(#id8)" d="M1.08 1.37c-0.05,0.09 -0.09,0.19 -0.1,0.29l0.33 0c0.01,-0.04 0.03,-0.08 0.05,-0.12 0.11,-0.2 0.34,-0.28 0.54,-0.22l0.17 -0.29c-0.36,-0.15 -0.79,-0.01 -0.99,0.34z"/>
      <path class="fil2" style="mask:url(#id10)" d="M1.77 2.57c0.11,0 0.21,-0.02 0.3,-0.06l-0.17 -0.29c-0.04,0.01 -0.08,0.02 -0.13,0.02 -0.22,0 -0.41,-0.15 -0.46,-0.36l-0.33 0c0.05,0.39 0.39,0.69 0.79,0.69z"/>
      <path class="fil2" style="mask:url(#id12)" d="M2.46 1.37c-0.05,-0.09 -0.12,-0.17 -0.2,-0.23l-0.16 0.29c0.03,0.03 0.06,0.07 0.08,0.11 0.11,0.19 0.07,0.42 -0.08,0.57l0.16 0.29c0.31,-0.24 0.4,-0.68 0.2,-1.03z"/>
     </g>
    </g>
   </g>
   <path class="fil0" d="M2.46 1.37c-0.22,-0.38 -0.71,-0.51 -1.09,-0.29 -0.38,0.22 -0.51,0.71 -0.29,1.09 0.22,0.38 0.71,0.51 1.09,0.29 0.38,-0.22 0.51,-0.71 0.29,-1.09z"/>
  </g>
 </g>
</svg>
